<?xml version="1.0" encoding="utf-8"?>
<!-- Generator: Adobe Illustrator 26.0.1, SVG Export Plug-In . SVG Version: 6.00 Build 0)  -->
<svg version="1.1" id="Layer_1" xmlns="http://www.w3.org/2000/svg" xmlns:xlink="http://www.w3.org/1999/xlink" x="0px" y="0px"
	 viewBox="0 0 84.5 14.8" style="enable-background:new 0 0 84.5 14.8;" xml:space="preserve">
<style type="text/css">
	.st0{clip-path:url(#SVGID_00000000933291591945531370000014459366799291723701_);}
	.st1{fill:#FFFFFF;}
	.st2{fill:#FF5722;}
</style>
<g id="Layer_2_00000174560352662170384640000006307764480874043567_">
	<g id="Layer_1-2">
		<g id="skillmore.psb">
			<g>
				<g>
					<defs>
						<rect id="SVGID_1_" x="0" y="-0.1" width="84.6" height="14.9"/>
					</defs>
					<clipPath id="SVGID_00000086657417426589396880000001464622612096298647_">
						<use xlink:href="#SVGID_1_"  style="overflow:visible;"/>
					</clipPath>
					<g style="clip-path:url(#SVGID_00000086657417426589396880000001464622612096298647_);">
						<path class="st1" d="M10.8,14.6V4.7h2.5v9.9C13.2,14.6,10.8,14.6,10.8,14.6z M12.9,13.3v-3l2.9-2.9h3l-3.3,3.4l-1.3,1
							L12.9,13.3z M16,14.6l-2.2-2.7l1.5-1.9l3.7,4.7L16,14.6L16,14.6z"/>
						<path class="st2" d="M20.9,7.3c-0.4,0-0.7-0.1-1-0.4c-0.3-0.2-0.4-0.6-0.4-0.9c0-0.3,0.1-0.7,0.4-0.9s0.6-0.4,1-0.4
							s0.7,0.1,1,0.3s0.4,0.5,0.4,0.8s-0.1,0.7-0.4,0.9C21.6,7.1,21.2,7.3,20.9,7.3z M19.8,14.6V7.9H22v6.7H19.8z"/>
						<path class="st1" d="M23.3,14.6V4.9H26v7.5h4.6v2.1C30.6,14.5,23.3,14.5,23.3,14.6z"/>
						<path class="st1" d="M31.5,14.6V4.9h2.7v7.5h4.6v2.1C38.8,14.5,31.5,14.5,31.5,14.6z"/>
						<path class="st2" d="M81.5,14.7c-0.3,0-0.6-0.1-0.9-0.3c-0.2-0.2-0.4-0.5-0.4-0.9c0-0.3,0.1-0.6,0.4-0.8
							c0.5-0.4,1.2-0.4,1.7,0c0.2,0.2,0.4,0.5,0.4,0.8s-0.1,0.6-0.4,0.9C82.1,14.6,81.8,14.8,81.5,14.7z"/>
						<path class="st1" d="M55,14.9c-0.7,0-1.4-0.1-2.1-0.4c-0.6-0.2-1.2-0.6-1.7-1c-0.5-0.5-0.8-1-1.1-1.6s-0.4-1.3-0.4-2
							s0.1-1.4,0.4-2c0.3-0.6,0.6-1.1,1.1-1.6c0.5-0.4,1.1-0.8,1.7-1c1.4-0.5,2.9-0.5,4.3,0c0.6,0.2,1.2,0.6,1.7,1
							c0.5,0.5,0.9,1,1.1,1.6c0.3,0.6,0.4,1.3,0.4,2s-0.1,1.4-0.4,2c-0.3,0.6-0.6,1.1-1.1,1.6c-0.5,0.4-1.1,0.8-1.7,1
							C56.5,14.7,55.8,14.9,55,14.9z M55,12.6c0.3,0,0.7-0.1,1-0.2c0.3-0.1,0.6-0.3,0.8-0.6s0.4-0.5,0.5-0.9c0.3-0.7,0.3-1.5,0-2.3
							C57.2,8.3,57,8,56.8,7.7c-0.2-0.2-0.5-0.4-0.8-0.6c-0.3-0.1-0.7-0.2-1-0.2s-0.7,0.1-1,0.2c-0.3,0.1-0.6,0.3-0.8,0.6
							c-0.2,0.2-0.4,0.5-0.5,0.9s-0.2,0.7-0.2,1.1c0,0.4,0.1,0.8,0.2,1.1c0.1,0.3,0.3,0.6,0.5,0.9c0.2,0.2,0.5,0.4,0.8,0.6
							C54.3,12.6,54.6,12.7,55,12.6L55,12.6z"/>
						<path class="st1" d="M61.6,14.7V5h4.4c0.8,0,1.6,0.1,2.3,0.4c0.6,0.3,1.1,0.7,1.5,1.2c0.4,0.6,0.5,1.3,0.5,1.9
							c0,0.7-0.2,1.3-0.5,1.9c-0.4,0.5-0.9,0.9-1.5,1.1c-0.7,0.3-1.5,0.4-2.3,0.4h-2.9l1.2-1.2v3.7h-2.7V14.7z M64.3,11.3l-1.2-1.2
							h2.7c0.5,0,0.9-0.1,1.3-0.4c0.3-0.3,0.4-0.6,0.4-1s-0.1-0.7-0.4-1c-0.4-0.3-0.8-0.5-1.3-0.5h-2.7l1.2-1.2V11.3z M67.6,14.7
							l-2.4-3.5h2.9l2.4,3.5H67.6z"/>
						<path class="st1" d="M74.2,12.6h5v2.1h-7.7V5h7.6v2.1h-4.8L74.2,12.6L74.2,12.6z M74,8.8h4.5v2H74V8.8z"/>
						<path class="st1" d="M36,10.7V0.2h2.5L43,7.4h-1.3l4.2-7.2h2.5v10.6h-2.7V4.4H46l-3.2,5.3h-1.3l-3.3-5.3h0.6v6.4H36V10.7z"/>
						<path class="st1" d="M4.4,14.9c-0.9,0-1.7-0.1-2.5-0.3c-0.7-0.2-1.3-0.5-1.9-0.8l1-2.2c0.5,0.3,1.1,0.6,1.6,0.7
							c0.6,0.2,1.2,0.3,1.8,0.3c0.3,0,0.7,0,1-0.1c0.2,0,0.4-0.2,0.5-0.3c0.1-0.1,0.2-0.3,0.2-0.5s-0.1-0.4-0.3-0.5
							C5.6,11.1,5.2,11,5,10.9l-1.2-0.3c-0.4-0.1-0.8-0.2-1.3-0.3C2.1,10.2,1.7,10,1.3,9.7C0.9,9.5,0.6,9.2,0.4,8.8S0.1,7.9,0.1,7.4
							c0-0.6,0.2-1.2,0.5-1.7c0.4-0.5,0.9-1,1.6-1.2C3,4.1,3.9,3.9,4.8,3.9c0.7,0,1.4,0.1,2.1,0.2c0.6,0.1,1.2,0.4,1.8,0.7L7.8,7
							c-0.5-0.3-1-0.5-1.5-0.6S5.4,6.2,4.9,6.2c-0.3,0-0.7,0-1,0.1C3.7,6.4,3.5,6.5,3.4,6.6C3.1,6.9,3.1,6.9,3,7.2
							c0,0.2,0.1,0.5,0.3,0.6C3.7,7.9,4,8,4.2,8l1.2,0.3c0.4,0.1,0.8,0.2,1.3,0.3c0.4,0.1,0.8,0.3,1.2,0.5C8.4,9.3,8.6,9.6,8.9,10
							c0.2,0.4,0.3,0.9,0.3,1.4c0,0.6-0.2,1.2-0.5,1.7c-0.4,0.5-0.9,1-1.5,1.2C6.2,14.8,5.3,14.9,4.4,14.9z"/>
					</g>
				</g>
			</g>
		</g>
	</g>
</g>
</svg>
